<svg xmlns="http://www.w3.org/2000/svg" viewBox="0 0 804.64 188.13"><defs><style>.cls-1{fill:#fff;}.cls-2{fill:#f7ec4d;}</style></defs><g id="Layer_2" data-name="Layer 2"><g id="Layer_1-2" data-name="Layer 1"><polygon class="cls-1" points="720.15 162.4 737.88 188.13 804.64 188.13 753.19 116.58 720.15 162.4"/><polygon class="cls-1" points="804.64 0 737.88 0 720.15 25.74 753.01 71.73 804.64 0"/><polygon class="cls-2" points="669 0 602.55 0 669.44 94.07 602.55 188.13 669 188.13 736.32 94.06 669 0"/><rect class="cls-1" x="517.3" width="54.62" height="188.13"/><polygon class="cls-1" points="269.51 0 269.51 187.67 324.13 187.67 324.13 97.61 379.65 130.07 435.16 97.62 435.16 187.67 489.78 187.67 489.78 0 379.64 64.42 269.51 0"/><circle class="cls-1" cx="222.36" cy="94.3" r="19.02" transform="translate(93.65 298.68) rotate(-80.78)"/><path class="cls-1" d="M150.48,25.57Q125.75.41,87.6.41T24.73,25.57Q0,50.74,0,94H0v0q0,42.72,24.59,68.17T90.43,187.7q43.51,0,68.67-29.55h0l0,0-39-26.81c-8.22,8.71-18.39,12.47-29.69,12.47q-19.23,0-29.11-9.51c-5.89-5.66-9.82-11.51-10.46-17.56v-2.16H173.23a160,160,0,0,0,2-20.48v0h0Q175.2,50.74,150.48,25.57ZM127,75.9H50.78v-.3q-.16-12.37,10.1-21.77t27.64-9.5q17.24,0,28.24,9.5t10.4,22.07Z"/></g></g></svg>